# xmcd CD database file
#
# Track frame offsets:
#	150
#	22031
#	43285
#	62470
#	85548
#	104656
#	135804
#
# Disc length: 2241 seconds
#
# Revision: 0
# Processed by: cddbd v1.5.1PL0 Copyright (c) Steve Scherf et al.
# Submitted via: CDex 1.51
#
DISCID=5208bf07
DTITLE=THE PINK☆PANDA - PANDA
DYEAR=1900
DGENRE=Rock
TTITLE0=PANDA
TTITLE1=PANIC GIRL
TTITLE2=LOVEチャリ
TTITLE3=ゆびさき
TTITLE4=Let's Go OH・YAH・JI
TTITLE5=Party!Party!
TTITLE6=PV
EXTD=
EXTT0=
EXTT1=
EXTT2=
EXTT3=
EXTT4=
EXTT5=
EXTT6=
PLAYORDER=
